{
    "accessors" : [
        {
            "bufferView" : 0,
            "componentType" : 5123,
            "count" : 1836,
            "max" : [
                1835
            ],
            "min" : [
                0
            ],
            "type" : "SCALAR"
        },
        {
            "bufferView" : 1,
            "componentType" : 5126,
            "count" : 1836,
            "max" : [
                4.393712043762207,
                7.68408203125,
                3.5883569717407227
            ],
            "min" : [
                -5.259825229644775,
                0.0,
                -2.9659650325775146
            ],
            "type" : "VEC3"
        },
        {
            "bufferView" : 2,
            "componentType" : 5126,
            "count" : 1836,
            "max" : [
                0.9942014813423157,
                0.99920654296875,
                1.0
            ],
            "min" : [
                -0.9942014813423157,
                -1.0,
                -1.0
            ],
            "type" : "VEC3"
        },
        {
            "bufferView" : 3,
            "componentType" : 5126,
            "count" : 1836,
            "max" : [
                0.9999680519104004,
                0.9997395873069763,
                0.8850440979003906,
                1.0
            ],
            "min" : [
                -0.9999983310699463,
                -0.9790977239608765,
                -0.9999994039535522,
                1.0
            ],
            "type" : "VEC4"
        },
        {
            "bufferView" : 4,
            "componentType" : 5126,
            "count" : 1836,
            "max" : [
                0.9949319958686829,
                0.0
            ],
            "min" : [
                0.038134001195430756,
                -0.9677829742431641
            ],
            "type" : "VEC2"
        }
    ],
    "asset" : {
        "generator" : "Khronos Blender glTF 2.0 exporter",
        "version" : "2.0"
    },
    "bufferViews" : [
        {
            "buffer" : 0,
            "byteLength" : 3672,
            "byteOffset" : 0,
            "target" : 34963
        },
        {
            "buffer" : 0,
            "byteLength" : 22032,
            "byteOffset" : 3672,
            "target" : 34962
        },
        {
            "buffer" : 0,
            "byteLength" : 22032,
            "byteOffset" : 25704,
            "target" : 34962
        },
        {
            "buffer" : 0,
            "byteLength" : 29376,
            "byteOffset" : 47736,
            "target" : 34962
        },
        {
            "buffer" : 0,
            "byteLength" : 14688,
            "byteOffset" : 77112,
            "target" : 34962
        }
    ],
    "buffers" : [
        {
            "byteLength" : 91800,
            "uri" : "AppleTree_Sapling.bin"
        }
    ],
    "images" : [
        {
            "name" : "AppleTree_mat-image",
            "uri" : "AppleTree_mat-image.png"
        }
    ],
    "materials" : [
        {
            "doubleSided" : true,
            "name" : "AppleTree_mat",
            "pbrMetallicRoughness" : {
                "baseColorFactor" : [
                    0.5,
                    0.5,
                    0.5,
                    1.0
                ],
                "baseColorTexture" : {
                    "index" : 0
                },
                "metallicFactor" : 0.0,
                "roughnessFactor" : 0.9699476361274719
            }
        }
    ],
    "meshes" : [
        {
            "name" : "buffer-0-mesh-0",
            "primitives" : [
                {
                    "attributes" : {
                        "NORMAL" : 2,
                        "POSITION" : 1,
                        "TANGENT" : 3,
                        "TEXCOORD_0" : 4
                    },
                    "indices" : 0,
                    "material" : 0
                }
            ]
        }
    ],
    "nodes" : [
        {
            "name" : "Camera",
            "rotation" : [
                0.483536034822464,
                0.33687159419059753,
                -0.20870360732078552,
                0.7804827094078064
            ],
            "translation" : [
                7.481131553649902,
                5.34366512298584,
                6.5076398849487305
            ]
        },
        {
            "name" : "Lamp",
            "rotation" : [
                0.16907575726509094,
                0.7558802962303162,
                -0.27217137813568115,
                0.570947527885437
            ],
            "scale" : [
                1.0,
                1.0,
                0.9999999403953552
            ],
            "translation" : [
                4.076245307922363,
                5.903861999511719,
                -1.0054539442062378
            ]
        },
        {
            "mesh" : 0,
            "name" : "node-0",
            "scale" : [
                0.6724651455879211,
                0.6724651455879211,
                0.6724651455879211
            ]
        }
    ],
    "samplers" : [
        {}
    ],
    "scene" : 0,
    "scenes" : [
        {
            "name" : "Scene",
            "nodes" : [
                2,
                1,
                0
            ]
        }
    ],
    "textures" : [
        {
            "sampler" : 0,
            "source" : 0
        }
    ]
}
