{
    "accessors" : [
        {
            "bufferView" : 0,
            "componentType" : 5123,
            "count" : 456,
            "max" : [
                455
            ],
            "min" : [
                0
            ],
            "type" : "SCALAR"
        },
        {
            "bufferView" : 1,
            "componentType" : 5126,
            "count" : 456,
            "max" : [
                0.9096760153770447,
                4.7603759765625,
                0.2430720031261444
            ],
            "min" : [
                -0.2949739992618561,
                0.0,
                -0.22613200545310974
            ],
            "type" : "VEC3"
        },
        {
            "bufferView" : 2,
            "componentType" : 5126,
            "count" : 456,
            "max" : [
                0.8879360556602478,
                0.443098247051239,
                1.0
            ],
            "min" : [
                -0.8844569325447083,
                -1.0,
                -1.0
            ],
            "type" : "VEC3"
        },
        {
            "bufferView" : 3,
            "componentType" : 5126,
            "count" : 456,
            "max" : [
                0.9996181130409241,
                0.3877800405025482,
                0.8850440979003906,
                1.0
            ],
            "min" : [
                -0.9999983310699463,
                -0.5236855745315552,
                -0.9998427033424377,
                1.0
            ],
            "type" : "VEC4"
        },
        {
            "bufferView" : 4,
            "componentType" : 5126,
            "count" : 456,
            "max" : [
                0.17255499958992004,
                -0.14102602005004883
            ],
            "min" : [
                0.038134001195430756,
                -0.36781299114227295
            ],
            "type" : "VEC2"
        }
    ],
    "asset" : {
        "generator" : "Khronos Blender glTF 2.0 exporter",
        "version" : "2.0"
    },
    "bufferViews" : [
        {
            "buffer" : 0,
            "byteLength" : 912,
            "byteOffset" : 0,
            "target" : 34963
        },
        {
            "buffer" : 0,
            "byteLength" : 5472,
            "byteOffset" : 912,
            "target" : 34962
        },
        {
            "buffer" : 0,
            "byteLength" : 5472,
            "byteOffset" : 6384,
            "target" : 34962
        },
        {
            "buffer" : 0,
            "byteLength" : 7296,
            "byteOffset" : 11856,
            "target" : 34962
        },
        {
            "buffer" : 0,
            "byteLength" : 3648,
            "byteOffset" : 19152,
            "target" : 34962
        }
    ],
    "buffers" : [
        {
            "byteLength" : 22800,
            "uri" : "AppleTree_Sprout.bin"
        }
    ],
    "images" : [
        {
            "name" : "AppleTree_mat-image",
            "uri" : "AppleTree_mat-image.png"
        }
    ],
    "materials" : [
        {
            "doubleSided" : true,
            "name" : "AppleTree_mat",
            "pbrMetallicRoughness" : {
                "baseColorFactor" : [
                    3.0,
                    3.0,
                    3.0,
                    1.0
                ],
                "baseColorTexture" : {
                    "index" : 0
                },
                "metallicFactor" : 0.0,
                "roughnessFactor" : 0.9699476361274719
            }
        }
    ],
    "meshes" : [
        {
            "name" : "buffer-0-mesh-0",
            "primitives" : [
                {
                    "attributes" : {
                        "NORMAL" : 2,
                        "POSITION" : 1,
                        "TANGENT" : 3,
                        "TEXCOORD_0" : 4
                    },
                    "indices" : 0,
                    "material" : 0
                }
            ]
        }
    ],
    "nodes" : [
        {
            "name" : "Camera",
            "rotation" : [
                0.483536034822464,
                0.33687159419059753,
                -0.20870360732078552,
                0.7804827094078064
            ],
            "translation" : [
                7.481131553649902,
                5.34366512298584,
                6.5076398849487305
            ]
        },
        {
            "name" : "Lamp",
            "rotation" : [
                0.16907575726509094,
                0.7558802962303162,
                -0.27217137813568115,
                0.570947527885437
            ],
            "scale" : [
                1.0,
                1.0,
                0.9999999403953552
            ],
            "translation" : [
                4.076245307922363,
                5.903861999511719,
                -1.0054539442062378
            ]
        },
        {
            "mesh" : 0,
            "name" : "node-0",
            "scale" : [
                0.6724651455879211,
                0.6724651455879211,
                0.6724651455879211
            ]
        }
    ],
    "samplers" : [
        {}
    ],
    "scene" : 0,
    "scenes" : [
        {
            "name" : "Scene",
            "nodes" : [
                2,
                1,
                0
            ]
        }
    ],
    "textures" : [
        {
            "sampler" : 0,
            "source" : 0
        }
    ]
}
